<svg xmlns="http://www.w3.org/2000/svg" xmlns:xlink="http://www.w3.org/1999/xlink" xmlns:s="https://github.com/nturley/netlistsvg" width="541" height="378.5">
  <style>svg {
    stroke:#000;
    fill:none;
  }
  text {
    fill:#000;
    stroke:none;
    font-size:10px;
    font-weight: bold;
    font-family: "Courier New", monospace;
  }
  .nodelabel {
    text-anchor: middle;
  }
  .inputPortLabel {
    text-anchor: end;
  }
  .splitjoinBody {
    fill:#000;
  }</style>
  <g s:type="or" transform="translate(83,77)" s:width="30" s:height="25" id="cell_$or$/home/mglb/projects/sphinx-verilog/src/sphinx-verilogdomain-gh/example/source/verilog/carry4-whole.v:20$1">
    <s:alias val="$or"/>
    <s:alias val="$logic_or"/>
    <s:alias val="$_OR_"/>
    <path d="M0,25 L0,25 L15,25 A15 12.5 0 0 0 15,0 L0,0" class="cell_$or$/home/mglb/projects/sphinx-verilog/src/sphinx-verilogdomain-gh/example/source/verilog/carry4-whole.v:20$1"/>
    <path d="M0,0 A30 25 0 0 1 0,25" class="cell_$or$/home/mglb/projects/sphinx-verilog/src/sphinx-verilogdomain-gh/example/source/verilog/carry4-whole.v:20$1"/>
    <g s:x="3" s:y="5" s:pid="A"/>
    <g s:x="3" s:y="20" s:pid="B"/>
    <g s:x="30" s:y="12.5" s:pid="Y"/>
  </g>
  <g s:type="mux" transform="translate(163,59.5)" s:width="20" s:height="40" id="cell_$ternary$/home/mglb/projects/sphinx-verilog/src/sphinx-verilogdomain-gh/example/source/verilog/carry4-whole.v:21$4">
    <s:alias val="$pmux"/>
    <s:alias val="$mux"/>
    <s:alias val="$_MUX_"/>
    <path d="M0,0 L20,10 L20,30 L0,40 Z" class="cell_$ternary$/home/mglb/projects/sphinx-verilog/src/sphinx-verilogdomain-gh/example/source/verilog/carry4-whole.v:21$4"/>
    <g s:x="0" s:y="10" s:pid="A"/>
    <g s:x="0" s:y="30" s:pid="B"/>
    <g s:x="10" s:y="35" s:pid="S"/>
    <g s:x="20" s:y="20" s:pid="Y"/>
  </g>
  <g s:type="mux" transform="translate(218,122)" s:width="20" s:height="40" id="cell_$ternary$/home/mglb/projects/sphinx-verilog/src/sphinx-verilogdomain-gh/example/source/verilog/carry4-whole.v:22$5">
    <s:alias val="$pmux"/>
    <s:alias val="$mux"/>
    <s:alias val="$_MUX_"/>
    <path d="M0,0 L20,10 L20,30 L0,40 Z" class="cell_$ternary$/home/mglb/projects/sphinx-verilog/src/sphinx-verilogdomain-gh/example/source/verilog/carry4-whole.v:22$5"/>
    <g s:x="0" s:y="10" s:pid="A"/>
    <g s:x="0" s:y="30" s:pid="B"/>
    <g s:x="10" s:y="35" s:pid="S"/>
    <g s:x="20" s:y="20" s:pid="Y"/>
  </g>
  <g s:type="mux" transform="translate(273,162)" s:width="20" s:height="40" id="cell_$ternary$/home/mglb/projects/sphinx-verilog/src/sphinx-verilogdomain-gh/example/source/verilog/carry4-whole.v:23$6">
    <s:alias val="$pmux"/>
    <s:alias val="$mux"/>
    <s:alias val="$_MUX_"/>
    <path d="M0,0 L20,10 L20,30 L0,40 Z" class="cell_$ternary$/home/mglb/projects/sphinx-verilog/src/sphinx-verilogdomain-gh/example/source/verilog/carry4-whole.v:23$6"/>
    <g s:x="0" s:y="10" s:pid="A"/>
    <g s:x="0" s:y="30" s:pid="B"/>
    <g s:x="10" s:y="35" s:pid="S"/>
    <g s:x="20" s:y="20" s:pid="Y"/>
  </g>
  <g s:type="mux" transform="translate(376,202)" s:width="20" s:height="40" id="cell_$ternary$/home/mglb/projects/sphinx-verilog/src/sphinx-verilogdomain-gh/example/source/verilog/carry4-whole.v:24$7">
    <s:alias val="$pmux"/>
    <s:alias val="$mux"/>
    <s:alias val="$_MUX_"/>
    <path d="M0,0 L20,10 L20,30 L0,40 Z" class="cell_$ternary$/home/mglb/projects/sphinx-verilog/src/sphinx-verilogdomain-gh/example/source/verilog/carry4-whole.v:24$7"/>
    <g s:x="0" s:y="10" s:pid="A"/>
    <g s:x="0" s:y="30" s:pid="B"/>
    <g s:x="10" s:y="35" s:pid="S"/>
    <g s:x="20" s:y="20" s:pid="Y"/>
  </g>
  <g s:type="reduce_xor" transform="translate(431,341.5)" s:width="33" s:height="25" id="cell_$xor$/home/mglb/projects/sphinx-verilog/src/sphinx-verilogdomain-gh/example/source/verilog/carry4-whole.v:20$2">
    <s:alias val="$xor"/>
    <s:alias val="$reduce_xor"/>
    <s:alias val="$_XOR_"/>
    <path d="M3,0 A30 25 0 0 1 3,25 A30 25 0 0 0 33,12.5 A30 25 0 0 0 3,0" class="cell_$xor$/home/mglb/projects/sphinx-verilog/src/sphinx-verilogdomain-gh/example/source/verilog/carry4-whole.v:20$2"/>
    <path d="M0,0 A30 25 0 0 1 0,25" class="cell_$xor$/home/mglb/projects/sphinx-verilog/src/sphinx-verilogdomain-gh/example/source/verilog/carry4-whole.v:20$2"/>
    <g s:x="3" s:y="5" s:pid="A"/>
    <g s:x="3" s:y="20" s:pid="B"/>
    <g s:x="33" s:y="12.5" s:pid="Y"/>
  </g>
  <g s:type="outputExt" transform="translate(499,202)" s:width="30" s:height="20" id="cell_CO">
    <text x="15" y="-4" class="nodelabel cell_CO" s:attribute="ref">CO</text>
    <s:alias val="$_outputExt_"/>
    <path d="M30,0 L30,20 L15,20 L0,10 L15,0 Z" class="cell_CO"/>
    <g s:x="0" s:y="10" s:pid="A"/>
  </g>
  <g s:type="outputExt" transform="translate(499,344)" s:width="30" s:height="20" id="cell_O">
    <text x="15" y="-4" class="nodelabel cell_O" s:attribute="ref">O</text>
    <s:alias val="$_outputExt_"/>
    <path d="M30,0 L30,20 L15,20 L0,10 L15,0 Z" class="cell_O"/>
    <g s:x="0" s:y="10" s:pid="A"/>
  </g>
  <g s:type="inputExt" transform="translate(12,22)" s:width="30" s:height="20" id="cell_CI">
    <text x="15" y="-4" class="nodelabel cell_CI" s:attribute="ref">CI</text>
    <s:alias val="$_inputExt_"/>
    <path d="M0,0 L0,20 L15,20 L30,10 L15,0 Z" class="cell_CI"/>
    <g s:x="28" s:y="10" s:pid="Y"/>
  </g>
  <g s:type="inputExt" transform="translate(12,87)" s:width="30" s:height="20" id="cell_CYINIT">
    <text x="15" y="-4" class="nodelabel cell_CYINIT" s:attribute="ref">CYINIT</text>
    <s:alias val="$_inputExt_"/>
    <path d="M0,0 L0,20 L15,20 L30,10 L15,0 Z" class="cell_CYINIT"/>
    <g s:x="28" s:y="10" s:pid="Y"/>
  </g>
  <g s:type="inputExt" transform="translate(12,152)" s:width="30" s:height="20" id="cell_DI">
    <text x="15" y="-4" class="nodelabel cell_DI" s:attribute="ref">DI</text>
    <s:alias val="$_inputExt_"/>
    <path d="M0,0 L0,20 L15,20 L30,10 L15,0 Z" class="cell_DI"/>
    <g s:x="28" s:y="10" s:pid="Y"/>
  </g>
  <g s:type="inputExt" transform="translate(12,336.5)" s:width="30" s:height="20" id="cell_S">
    <text x="15" y="-4" class="nodelabel cell_S" s:attribute="ref">S</text>
    <s:alias val="$_inputExt_"/>
    <path d="M0,0 L0,20 L15,20 L30,10 L15,0 Z" class="cell_S"/>
    <g s:x="28" s:y="10" s:pid="Y"/>
  </g>
  <g s:type="join" transform="translate(383.6666666666667,38)" s:width="4" s:height="40" id="cell_$join$,20,2,3,4,">
    <rect width="5" height="40" class="splitjoinBody" s:generic="body"/>
    <s:alias val="$_join_"/>
    <g s:x="5" s:y="20" s:pid="out"/>
    <g transform="translate(0,10)" s:x="0" s:y="10" s:pid="in0">
      <text x="-3" y="-4" class="inputPortLabel">0</text>
    </g>
    <g transform="translate(0,30)" s:x="0" s:y="10" s:pid="in0">
      <text x="-3" y="-4" class="inputPortLabel">1:3</text>
    </g>
  </g>
  <g s:type="join" transform="translate(335,111.5)" s:width="4" s:height="40" id="cell_$join$,2,3,4,">
    <rect width="5" height="60" class="splitjoinBody" s:generic="body"/>
    <s:alias val="$_join_"/>
    <g s:x="5" s:y="20" s:pid="out"/>
    <g transform="translate(0,10)" s:x="0" s:y="10" s:pid="in0">
      <text x="-3" y="-4" class="inputPortLabel">0</text>
    </g>
    <g transform="translate(0,30)" s:x="0" s:y="10" s:pid="in0">
      <text x="-3" y="-4" class="inputPortLabel">1</text>
    </g>
    <g transform="translate(0,50)" s:x="0" s:y="10" s:pid="in0">
      <text x="-3" y="-4" class="inputPortLabel">2</text>
    </g>
  </g>
  <g s:type="join" transform="translate(450,191.5)" s:width="4" s:height="40" id="cell_$join$,2,3,4,5,">
    <rect width="5" height="40" class="splitjoinBody" s:generic="body"/>
    <s:alias val="$_join_"/>
    <g s:x="5" s:y="20" s:pid="out"/>
    <g transform="translate(0,10)" s:x="0" s:y="10" s:pid="in0">
      <text x="-3" y="-4" class="inputPortLabel">0:2</text>
    </g>
    <g transform="translate(0,30)" s:x="0" s:y="10" s:pid="in0">
      <text x="-3" y="-4" class="inputPortLabel">3</text>
    </g>
  </g>
  <g s:type="split" transform="translate(98.8,141.5)" s:width="5" s:height="40" id="cell_$split$,12,13,14,15,">
    <rect width="5" height="80" class="splitjoinBody" s:generic="body"/>
    <s:alias val="$_split_"/>
    <g s:x="0" s:y="20" s:pid="in"/>
    <g transform="translate(4,10)" s:x="4" s:y="10" s:pid="out0">
      <text x="5" y="-4">0</text>
    </g>
    <g transform="translate(4,30)" s:x="4" s:y="10" s:pid="out0">
      <text x="5" y="-4">1</text>
    </g>
    <g transform="translate(4,50)" s:x="4" s:y="10" s:pid="out0">
      <text x="5" y="-4">2</text>
    </g>
    <g transform="translate(4,70)" s:x="4" s:y="10" s:pid="out0">
      <text x="5" y="-4">3</text>
    </g>
  </g>
  <g s:type="split" transform="translate(98.8,256.5)" s:width="5" s:height="40" id="cell_$split$,16,17,18,19,">
    <rect width="5" height="80" class="splitjoinBody" s:generic="body"/>
    <s:alias val="$_split_"/>
    <g s:x="0" s:y="20" s:pid="in"/>
    <g transform="translate(4,10)" s:x="4" s:y="10" s:pid="out0">
      <text x="5" y="-4">0</text>
    </g>
    <g transform="translate(4,30)" s:x="4" s:y="10" s:pid="out0">
      <text x="5" y="-4">1</text>
    </g>
    <g transform="translate(4,50)" s:x="4" s:y="10" s:pid="out0">
      <text x="5" y="-4">2</text>
    </g>
    <g transform="translate(4,70)" s:x="4" s:y="10" s:pid="out0">
      <text x="5" y="-4">3</text>
    </g>
  </g>
  <line x1="40" x2="58" y1="32" y2="32" class="net_10"/>
  <line x1="58" x2="58" y1="32" y2="82" class="net_10"/>
  <line x1="58" x2="86" y1="82" y2="82" class="net_10"/>
  <line x1="40" x2="86" y1="97" y2="97" class="net_11"/>
  <line x1="103.8" x2="133" y1="152" y2="152" class="net_12"/>
  <line x1="133" x2="133" y1="152" y2="69.5" class="net_12"/>
  <line x1="133" x2="163" y1="69.5" y2="69.5" class="net_12"/>
  <line x1="113" x2="163" y1="89.5" y2="89.5" class="net_20"/>
  <line x1="113" x2="123" y1="89.5" y2="89.5" class="net_20"/>
  <line x1="123" x2="123" y1="89.5" y2="48.5" class="net_20"/>
  <circle cx="123" cy="89.5" r="2" style="fill:#000" class="net_20"/>
  <line x1="123" x2="383.6666666666667" y1="48.5" y2="48.5" class="net_20"/>
  <line x1="103.8" x2="173" y1="267" y2="267" class="net_16"/>
  <line x1="173" x2="173" y1="267" y2="94.5" class="net_16"/>
  <line x1="103.8" x2="143" y1="172" y2="172" class="net_13"/>
  <line x1="143" x2="143" y1="172" y2="132" class="net_13"/>
  <line x1="143" x2="218" y1="132" y2="132" class="net_13"/>
  <line x1="183" x2="193" y1="79.5" y2="79.5" class="net_2"/>
  <line x1="193" x2="193" y1="79.5" y2="152" class="net_2"/>
  <circle cx="193" cy="79.5" r="2" style="fill:#000" class="net_2"/>
  <line x1="193" x2="218" y1="152" y2="152" class="net_2"/>
  <line x1="183" x2="303" y1="79.5" y2="79.5" class="net_2"/>
  <line x1="303" x2="303" y1="79.5" y2="122" class="net_2"/>
  <line x1="303" x2="335" y1="122" y2="122" class="net_2"/>
  <line x1="103.8" x2="228" y1="287" y2="287" class="net_17"/>
  <line x1="228" x2="228" y1="287" y2="157" class="net_17"/>
  <line x1="103.8" x2="153" y1="192" y2="192" class="net_14"/>
  <line x1="153" x2="153" y1="192" y2="172" class="net_14"/>
  <line x1="153" x2="273" y1="172" y2="172" class="net_14"/>
  <line x1="238" x2="248" y1="142" y2="142" class="net_3"/>
  <line x1="248" x2="248" y1="142" y2="192" class="net_3"/>
  <circle cx="248" cy="142" r="2" style="fill:#000" class="net_3"/>
  <line x1="248" x2="273" y1="192" y2="192" class="net_3"/>
  <line x1="238" x2="335" y1="142" y2="142" class="net_3"/>
  <line x1="103.8" x2="283" y1="307" y2="307" class="net_18"/>
  <line x1="283" x2="283" y1="307" y2="197" class="net_18"/>
  <line x1="103.8" x2="376" y1="212" y2="212" class="net_15"/>
  <line x1="293" x2="351" y1="182" y2="182" class="net_4"/>
  <line x1="351" x2="351" y1="182" y2="232" class="net_4"/>
  <line x1="351" x2="376" y1="232" y2="232" class="net_4"/>
  <line x1="293" x2="303" y1="182" y2="182" class="net_4"/>
  <line x1="303" x2="303" y1="182" y2="162" class="net_4"/>
  <circle cx="303" cy="182" r="2" style="fill:#000" class="net_4"/>
  <line x1="303" x2="335" y1="162" y2="162" class="net_4"/>
  <line x1="103.8" x2="386" y1="327" y2="327" class="net_19"/>
  <line x1="386" x2="386" y1="327" y2="237" class="net_19"/>
  <line x1="40" x2="434" y1="346.5" y2="346.5" class="net_16,17,18,19"/>
  <line x1="40" x2="58" y1="346.5" y2="346.5" class="net_16,17,18,19"/>
  <line x1="58" x2="58" y1="346.5" y2="277" class="net_16,17,18,19"/>
  <circle cx="58" cy="346.5" r="2" style="fill:#000" class="net_16,17,18,19"/>
  <line x1="58" x2="98.8" y1="277" y2="277" class="net_16,17,18,19"/>
  <line x1="389.6666666666667" x2="416" y1="58.5" y2="58.5" class="net_20,2,3,4"/>
  <line x1="416" x2="416" y1="58.5" y2="361.5" class="net_20,2,3,4"/>
  <line x1="416" x2="434" y1="361.5" y2="361.5" class="net_20,2,3,4"/>
  <line x1="456" x2="499" y1="212" y2="212" class="net_2,3,4,5"/>
  <line x1="464" x2="499" y1="354" y2="354" class="net_6,7,8,9"/>
  <line x1="341" x2="351" y1="132" y2="132" class="net_2,3,4"/>
  <line x1="351" x2="351" y1="132" y2="68.5" class="net_2,3,4"/>
  <circle cx="351" cy="132" r="2" style="fill:#000" class="net_2,3,4"/>
  <line x1="351" x2="383.6666666666667" y1="68.5" y2="68.5" class="net_2,3,4"/>
  <line x1="341" x2="406" y1="132" y2="132" class="net_2,3,4"/>
  <line x1="406" x2="406" y1="132" y2="202" class="net_2,3,4"/>
  <line x1="406" x2="450" y1="202" y2="202" class="net_2,3,4"/>
  <line x1="396" x2="450" y1="222" y2="222" class="net_5"/>
  <line x1="40" x2="98.8" y1="162" y2="162" class="net_12,13,14,15"/>
</svg>
